<svg
   xmlns="http://www.w3.org/2000/svg"
   viewBox="0 0 28 26.257"
   id="svg34">
  <style
     id="style4">
		.s0 { fill: #000000 } 
		.s1 { fill: #e60012 } 
	</style>
  <path
     class="s0"
     d="m 0,21.845845 c 0,0 3.3845676,0 3.8973809,0 0.6153758,0 1.2307518,0.410251 1.1281891,1.333314 -0.1025627,1.12819 -0.6153758,2.974317 -3.6922555,3.07688 -0.2051253,0 -0.41025061,0 -0.41025061,0 v -0.717938 c 2.87175421,0.102562 2.87175421,-1.743565 2.97431701,-2.461503 0,-0.307689 -0.1025628,-0.512814 -0.615376,-0.512814 -0.4102506,0 -3.2820049,0 -3.2820049,0 z"
     id="path6"
     style="stroke-width:1.02563" />
  <path
     class="s0"
     d="m 22.05097,23.384285 h -1.128189 c 0,0.717939 -0.512814,1.53844 -1.333314,1.846128 -0.205126,0.102562 -0.512813,0.205125 -0.717938,0.205125 -0.205126,0 -0.205126,-0.205125 -0.205126,-0.307689 0,-0.307687 0,-3.282004 0,-3.282004 h -1.128189 c 0,0 0,3.07688 0,3.282004 0,1.025627 0.41025,1.025627 1.128189,1.025627 0.205126,0 0.307688,0 0.512813,0 2.051253,-0.307687 2.974317,-1.846127 2.871754,-2.769191 z"
     id="path8"
     style="stroke-width:1.02563" />
  <path
     fill-rule="evenodd"
     class="s0"
     d="M 5.9486339,21.845845 H 7.999887 v 0.717939 H 5.9486339 Z"
     id="path10"
     style="stroke-width:1.02563" />
  <path
     fill-rule="evenodd"
     class="s0"
     d="M 5.9486339,23.281723 H 7.999887 v 0.717938 H 5.9486339 Z"
     id="path12"
     style="stroke-width:1.02563" />
  <path
     class="s0"
     d="m 10.05114,25.025288 c 0.307688,-0.410251 0.512813,-1.025627 0.512813,-1.025627 H 9.2306389 c 0,0 0,0.102563 0,0.102563 -0.4102507,1.333314 -1.8461278,1.435877 -2.5640665,1.435877 -0.4102506,0 -0.7179385,0 -0.7179385,0 v 0.717938 c 0,0 0.5128133,0 1.0256265,0 1.5384398,0 2.4615037,-0.512813 3.0768796,-1.230751 z"
     id="path14"
     style="stroke-width:1.02563" />
  <path
     fill-rule="evenodd"
     class="s0"
     d="m 9.3332015,21.64072 h 1.3333145 v 0.615376 H 9.3332015 Z"
     id="path16"
     style="stroke-width:1.02563" />
  <path
     fill-rule="evenodd"
     class="s0"
     d="m 9.3332015,22.666346 h 1.3333145 v 0.512813 H 9.3332015 Z"
     id="path18"
     style="stroke-width:1.02563" />
  <path
     fill-rule="evenodd"
     class="s0"
     d="m 11.897268,21.845845 h 4.410194 v 0.717939 h -4.410194 z"
     id="path20"
     style="stroke-width:1.02563" />
  <path
     class="s0"
     d="m 16.410024,23.384285 h -4.615319 v 0.615376 h 1.846127 c 0.102564,1.230752 -0.717938,1.641002 -1.743564,1.53844 v 0.717938 c 0.512813,0 2.974318,0.102564 3.076879,-2.256378 h 1.435877 z"
     id="path22"
     style="stroke-width:1.02563" />
  <path
     class="s0"
     d="m 24.820162,25.435538 c -0.307688,0 -0.615376,-0.205125 -0.615376,-0.512813 v -1.128189 l 3.282005,-0.102564 v -0.615374 h -3.282005 v -1.230753 h -1.025627 v 3.07688 c 0,0.615376 0.512813,1.230751 1.230752,1.230751 h 3.07688 v -0.717938 z"
     id="path24"
     style="stroke-width:1.02563" />
  <path
     fill-rule="evenodd"
     class="s0"
     d="m 26.768852,21.435595 h 1.230753 v 0.512813 h -1.230753 z"
     id="path26"
     style="stroke-width:1.02563" />
  <path
     fill-rule="evenodd"
     class="s0"
     d="m 26.768852,22.256096 h 1.230753 v 0.512813 h -1.230753 z"
     id="path28"
     style="stroke-width:1.02563" />
  <path
     class="s0"
     d="m 23.794536,2.2563784 q 0,0 0,0 -0.307689,0.2051253 -0.615377,0.3076879 c -0.307687,0.1025627 -0.512813,0.4102506 -0.8205,0.615376 q 0,0 -0.102563,0.1025626 -0.102563,0.1025627 -0.205126,0.1025627 c -0.102562,0.2051252 -0.307687,0.4102505 -0.41025,0.6153759 -0.307688,0.4102507 -0.512814,0.7179386 -0.820501,1.1281892 0,0.1025627 0,0.1025627 -0.102563,0.2051253 -0.102562,0.1025626 -0.102562,0.3076879 -0.307689,0.4102506 0,0.1025626 0,0.1025626 0,0.2051253 -0.102561,0 -0.102561,0.1025627 -0.205125,0.3076879 q 0,0 -0.102561,0.1025628 c -0.102564,0.3076878 -0.307688,0.6153758 -0.512814,0.9230638 q 0,0.1025627 0,0.1025627 c 0.923064,0.9230638 1.538439,2.051253 1.94869,3.1794419 q 0,0.307688 0.102563,0.615376 c 0.102563,0.307688 0.102563,0.615376 0.205125,1.025626 q 0.102563,0.923064 -0.102562,1.948691 c -0.102563,0.307688 -0.102563,0.512813 -0.205126,0.820501 q -0.205125,0.410251 -0.307688,0.717939 -0.102563,0.205125 -0.205125,0.512813 -0.41025,0.717938 -1.12819,1.435877 c -0.41025,0.410251 -0.717938,0.615376 -1.230751,1.025627 -0.307688,0.205126 -0.615376,0.410251 -1.025627,0.512813 q -0.41025,0.205125 -0.8205,0.410251 -0.512814,0.205126 -1.025627,0.307687 c -0.615376,0.102563 -1.230752,0.102563 -1.948691,0.102563 q -0.615375,0 -1.230751,-0.102563 c -0.512813,-0.102561 -0.923065,-0.307687 -1.333315,-0.512813 -0.102563,-0.102562 -0.410251,0 -0.615376,-0.102562 -0.102563,0 -0.205125,0 -0.205125,-0.102563 -0.102563,0 -0.205125,-0.205125 -0.307689,-0.205125 C 9.0255135,18.461278 7.999887,17.845902 7.1793858,16.820276 6.8716978,16.410024 6.5640098,15.897211 6.2563218,15.384398 Q 6.1537592,15.07671 6.0511966,14.769022 c -0.2051254,-0.41025 -0.307688,-0.820501 -0.307688,-1.12819 -0.1025627,-0.307687 -0.2051253,-0.615375 -0.2051253,-0.923063 0,-0.41025 0,-0.717939 0,-1.128188 Q 5.6409459,10.974204 5.7435086,10.358828 5.8460712,10.153702 5.9486339,9.9485773 6.0511966,9.7434521 6.1537592,9.5383267 C 6.5640098,8.5127002 7.1793858,7.7947616 7.8973243,7.0768231 c 0.1025627,0 0.1025627,-0.1025627 0,-0.1025627 C 7.1793858,5.4358206 6.2563218,4.2050688 5.2306954,2.8717543 5.02557,2.666629 4.9230073,2.4615037 4.9230073,2.1538157 c 0,-0.1025626 0.1025627,-0.3076879 0.2051254,-0.4102506 0.6153759,-0.4102506 1.2307519,-0.6153759 1.8461277,-0.5128132 0.1025627,0 0.307688,0 0.4102507,0.1025626 0,0.1025627 -0.1025627,0.2051253 -0.1025627,0.3076879 C 7.1793858,1.7435651 7.0768231,1.7435651 7.0768231,1.8461278 6.7691351,2.0512531 6.3588846,2.0512531 6.0511966,2.3589411 q 0,0 0,0 C 6.1537592,2.666629 6.3588846,2.8717543 6.5640098,3.0768797 7.3845111,4.3076315 8.1024496,5.333258 8.7178255,6.4614472 9.6408894,5.9486339 10.666516,5.4358206 11.692142,5.2306954 Q 11.589581,4.3076315 11.487017,3.3845676 c 0,-0.4102507 0,-0.7179386 0,-1.0256265 q 0.102564,-0.4102507 0.205125,-0.7179387 0,-0.3076879 0.102563,-0.5128132 0.205125,-0.30768797 0.41025,-0.61537593 C 12.410081,0.30768797 12.615207,0.10256266 12.922894,0 q 0.205125,0 0.410251,0.10256266 0.102562,0.10256265 0.307687,0.20512531 c 0,0.10256264 0,0.30768795 -0.102561,0.41025061 0,0 -0.102564,-0.10256266 -0.102564,0 q -0.41025,0.10256265 -0.512813,0.41025062 -0.205125,0.4102506 -0.205125,0.7179386 -0.102562,0.3076879 -0.102562,0.7179385 -0.102564,1.1281892 0,2.2563784 c 0.102562,0.1025626 0.102562,0.307688 0.307687,0.2051253 0.410251,-0.1025627 0.820502,0 1.230752,0 0.512813,0 1.025627,0.1025627 1.53844,0.2051254 q 0.615376,0.1025626 1.230751,0.3076879 0.615377,0.3076879 1.12819,0.6153759 c 0.307688,0.1025626 0.512813,0.307688 0.820502,0.5128132 0.307687,-0.5128132 0.512812,-0.9230638 0.8205,-1.435877 0.102564,-0.1025627 0.102564,-0.2051254 0.205125,-0.4102507 q 0.102563,-0.1025626 0.205127,-0.2051254 c 0,0 0.102561,-0.1025626 0.102561,-0.1025626 0.205125,-0.5128132 0.512814,-0.7179386 0.820502,-1.1281891 0.307688,-0.4102507 0.615376,-0.8205013 1.025626,-1.1281892 0.102563,-0.1025627 0.205126,-0.2051253 0.307689,-0.2051253 0,0 0.102562,0 0.205125,0 0.102562,-0.1025627 0.102562,-0.2051253 0.205125,-0.2051253 0.205125,0 0.205125,-0.1025627 0.41025,-0.2051254 q 0,0.1025627 0,0.1025627 c 0,0 0.102564,0 0.102564,0 0.102562,0.2051253 0.307688,0.307688 0.512813,0.5128133 z m -4.61532,6.0511965 q -0.307687,0.6153759 -0.615376,1.2307518 -0.102562,0.1025627 -0.102562,0.307688 c 0,0.2051253 0,0.3076873 0,0.5128133 q 0,0.102563 -0.102563,0.102563 -0.102563,0.205125 -0.205125,0.307688 -0.205126,0.102562 -0.512814,0.102562 c -0.41025,0 -0.717939,-0.41025 -0.615375,-0.820501 0,-0.1025627 -0.102564,-0.2051253 0,-0.2051253 q 0.102561,0 0.102561,-0.1025626 c 0,-0.1025627 0.102564,-0.1025627 0.102564,-0.2051254 0.102563,-0.1025626 0.205125,-0.2051252 0.307688,-0.2051252 0,-0.2051254 0.102562,-0.4102507 0.205125,-0.5128133 q 0,0 0,-0.1025627 c 0,0 0,-0.1025627 0.102563,-0.2051253 0,0 0.102562,0 0.102562,-0.1025625 0.102563,-0.2051254 0,-0.3076881 0.102563,-0.3076881 Q 18.15359,7.999887 18.15359,7.7947616 c 0,0 0,0 0.102562,0 0.102563,-0.1025626 0.102563,-0.2051253 0.102563,-0.3076879 -1.435878,-1.2307519 -3.487129,-1.7435651 -5.333258,-1.5384398 -0.102563,0.2051253 0.102562,0.3076879 0.205126,0.4102507 0,0 0.102562,0 0.102562,0.1025626 0.205126,0.1025626 0.307687,0.2051252 0.410251,0.4102506 q 0,0 0.102562,0.1025626 c 0,0.307688 -0.205126,0.7179386 -0.615375,0.8205012 C 12.922894,7.8973243 12.615207,7.692199 12.410081,7.4870737 Q 12.307519,7.2819484 12.307519,7.1793858 c 0,-0.1025627 0,-0.2051254 0,-0.307688 -0.102564,-0.2051254 -0.205125,-0.4102506 -0.307689,-0.615376 -0.102562,0 -0.102562,-0.1025626 -0.102562,-0.1025626 -0.923064,0.2051254 -1.846128,0.5128132 -2.5640665,1.1281892 0,0 0.1025626,0.2051253 0.1025626,0.2051253 Q 9.5383267,7.5896363 9.6408894,7.5896363 9.7434521,7.692199 9.9485773,7.7947616 c 0.2051247,0.1025627 0.3076887,0.4102507 0.2051247,0.6153761 0,0.3076878 -0.3076873,0.5128131 -0.5128126,0.5128131 q -0.2051253,0.1025627 -0.4102505,0 c -0.1025628,0 -0.2051254,-0.1025626 -0.3076881,-0.2051253 0,-0.1025627 -0.1025626,-0.2051253 -0.1025626,-0.3076878 0,-0.1025628 -0.1025627,-0.1025628 -0.1025627,-0.1025628 0,-0.2051253 0,-0.3076879 -0.2051253,-0.4102506 C 8.2050123,7.999887 7.999887,8.3075749 7.7947616,8.6152628 7.2819484,9.1280761 7.0768231,9.7434521 6.7691351,10.358828 q -0.1025627,0.410251 -0.2051253,0.820501 c -0.1025626,0.410252 -0.1025626,0.717939 -0.1025626,1.025626 0,0.205126 0,0.410252 0,0.512814 0.1025626,0.307688 0.1025626,0.512814 0.2051252,0.717938 0,0.307689 0.1025627,0.615377 0.2051254,0.923065 0,0 0.1025626,0.102562 0.1025626,0.205125 q 0,0.102562 0.1025627,0.205125 0.5128132,1.230752 1.5384397,2.153815 c 0.307688,0.205125 0.5128133,0.512814 0.8205013,0.615377 0.1025626,0 0,-0.205125 0,-0.205125 0,-0.102563 0,-0.307688 -0.1025626,-0.410252 q 0,-0.307687 0,-0.512813 c 0,-0.307687 0.1025626,-0.615375 0.4102506,-0.717938 0.1025626,0 0.3076879,0.102563 0.3076879,0.205125 0.102562,0.307688 0.102562,0.615377 0.205126,0.923065 0,0.102561 0,0.205125 0.102562,0.205125 0,0 0.102563,-0.102564 0.102563,-0.102564 0.205125,0.307689 0.205125,0.717939 0.512813,0.923065 0.205125,0.205125 0.512813,0.102562 0.717938,0.205125 0.205126,0.102563 0.307688,0.205125 0.307688,0.307688 q 0,0.102563 0.205125,0.205125 c 0,0 -0.102561,0 -0.102561,0.102563 q 0,0.102562 0.102561,0.102562 c 0.820502,0.307689 1.641003,0.410251 2.461504,0.307689 q 0.307688,0 0.615376,0 0.512814,-0.102563 1.128189,-0.307689 c 0.615377,-0.205125 1.12819,-0.512813 1.743566,-0.820501 0.717939,-0.512813 1.333314,-1.025627 1.846127,-1.846127 q 1.230752,-1.948691 0.820502,-4.102507 C 20.717656,10.974204 20.307406,10.05114 19.794593,9.2306389 q 0,-0.1025628 -0.102564,-0.2051254 C 19.589467,8.8203882 19.384341,8.5127002 19.179216,8.3075749 Z"
     id="path30"
     style="stroke-width:1.02563" />
  <path
     class="s1"
     d="m 15.794649,11.384454 c 0.717939,0.615376 0.820501,1.743565 0.41025,2.564067 q -0.102562,0.205125 -0.102562,0.307688 c -0.205126,0.205125 -0.307688,0.307688 -0.512813,0.512813 -0.410251,0.410251 -0.820502,0.717938 -1.333315,0.923064 q -0.102563,0 -0.205125,0 c -0.615377,0.307688 -1.333315,0.307688 -1.94869,-0.102562 -0.307689,-0.205126 -0.512813,-0.307689 -0.71794,-0.615377 -0.512813,-0.820501 -0.923063,-1.641002 -0.923063,-2.666628 0,-0.205125 0.102562,-0.307689 0.205125,-0.512814 0,-0.307688 0.102563,-0.512813 0.307688,-0.717938 0,-0.102563 0.102563,-0.102563 0.102563,-0.205126 0.102562,0 0.102562,0.102563 0.205125,0 0.102562,-0.102562 0.205125,-0.205125 0.41025,-0.307688 0,0 0,-0.102562 0,-0.102562 0.102563,0 0.102563,-0.102563 0.205126,-0.205125 0.205126,0 0.307687,-0.102564 0.512813,-0.205126 0,0 0.102562,0 0.102562,0 0.71794,-0.3076879 1.641003,-0.3076879 2.358943,0.205126 q 0.307687,0.102562 0.512812,0.41025 c 0.205126,0.205125 0.307688,0.512813 0.410251,0.717938 z"
     id="path32"
     style="stroke-width:1.02563" />
</svg>
