<!DOCTYPE svg PUBLIC "-//W3C//DTD SVG 20010904//EN" "http://www.w3.org/TR/2001/REC-SVG-20010904/DTD/svg10.dtd">
<svg version="1.0" xmlns="http://www.w3.org/2000/svg" width="1000px" height="1000px" viewBox="0 0 10000 10000" preserveAspectRatio="xMidYMid meet">
<g id="layer101" fill="#03af7a" stroke="none">
 <path d="M0 5000 l0 -5000 5000 0 5000 0 0 5000 0 5000 -5000 0 -5000 0 0 -5000z"/>
 </g>
<g id="layer102" fill="#ffffff" stroke="none">
 <path d="M4010 5445 l0 -1415 1015 0 1015 0 0 210 0 210 -775 0 -775 0 0 370 0 370 705 0 705 0 0 210 0 210 -705 0 -705 0 0 420 0 420 795 0 795 0 0 205 0 205 -1035 0 -1035 0 0 -1415z"/>
 <path d="M3234 3609 c-42 -12 -100 -77 -108 -121 -5 -28 18 -120 108 -435 62 -220 121 -412 131 -426 20 -31 90 -67 128 -67 40 0 88 23 118 56 14 16 85 122 158 237 73 114 136 207 140 207 4 0 34 -93 66 -207 53 -190 62 -211 95 -245 84 -85 226 -47 261 71 12 41 9 55 -100 439 -62 218 -122 411 -132 429 -21 34 -90 73 -130 73 -43 -1 -107 -37 -136 -78 -15 -21 -84 -127 -153 -235 -69 -108 -128 -193 -131 -189 -3 4 -30 93 -59 197 -29 105 -59 201 -66 215 -17 35 -53 65 -93 79 -39 13 -54 13 -97 0z"/>
 <path d="M4523 3609 c-44 -13 -90 -62 -104 -112 -11 -40 -5 -64 101 -437 68 -240 121 -409 135 -431 44 -68 151 -88 215 -41 43 32 70 81 70 126 0 23 -12 79 -25 125 -14 47 -25 89 -25 93 0 4 79 8 175 8 96 0 175 -1 175 -3 0 -1 18 -65 40 -142 40 -141 56 -174 101 -207 62 -47 170 -26 214 41 44 68 44 68 -79 501 -105 368 -118 406 -148 437 -76 79 -203 59 -254 -39 -20 -39 -17 -93 11 -189 13 -46 25 -87 25 -91 0 -5 -79 -8 -175 -8 -96 0 -175 1 -175 3 0 23 -85 289 -98 307 -21 29 -97 70 -127 69 -11 0 -34 -5 -52 -10z"/>
 <path d="M5793 3599 c-45 -22 -79 -67 -89 -117 -7 -36 205 -799 237 -851 40 -67 156 -90 218 -44 72 54 85 123 48 248 -14 44 -23 81 -22 83 1 1 99 -70 216 -160 118 -89 230 -170 249 -180 100 -52 224 26 224 141 -1 77 -20 99 -216 247 -101 75 -185 139 -187 140 -2 2 41 51 95 109 54 58 114 126 132 152 31 43 34 53 30 101 -6 64 -29 99 -89 130 -50 26 -104 24 -150 -6 -14 -9 -92 -89 -174 -177 -81 -88 -162 -175 -179 -193 l-32 -33 -48 171 c-27 94 -58 183 -69 197 -23 29 -90 62 -127 63 -14 0 -44 -9 -67 -21z"/>
 </g>

</svg>