<svg version="1.1" id="Layer_1" xmlns="http://www.w3.org/2000/svg" xmlns:xlink="http://www.w3.org/1999/xlink" x="0px" y="0px"
	 viewBox="0 0 381.4 245.8" style="enable-background:new 0 0 381.4 245.8;" xml:space="preserve">
<g transform="translate(-52.511248,207.85671)">
	<path d="M99.8-34.3c-22.5-3.6-39.6-20.1-44.7-43.1c-1.9-8.6-2.3-14.9-2.5-37.6c-0.2-26.7,0.3-38.1,2.2-47.5
		c2.5-12.5,7.4-21.8,15.8-30.2c7.9-7.9,16.7-12.4,28.2-14.5c3-0.6,4.6-0.6,11.7-0.6c8.9,0,12,0.4,18,2.1
		c19.2,5.6,33.6,22.1,37.7,43.2c1.9,9.6,2.5,23.4,2.2,48.9c-0.2,21.5-0.8,29-2.9,37.6c-5.2,21.5-21,37-41.9,41.3
		c-2.9,0.6-4.4,0.7-12.1,0.8C104.9-33.9,101.9-34,99.8-34.3L99.8-34.3z M119.2-61.8c10.2-3,17.7-10.9,19.9-21
		c1.3-5.8,1.5-9.4,1.6-27.7l0.1-17.8l-0.6,0.4c-0.3,0.2-13.4,11.1-29,24.2C84.3-81.2,82.9-79.9,83.1-79.1c0.4,2.7,4.3,8.4,7.4,11.1
		c4.2,3.6,7.9,5.4,13.2,6.6C106.8-60.7,116.2-61,119.2-61.8z M109.6-137.9c15.6-13.1,28.4-24,28.4-24.3c0-0.7-1.7-4.2-2.9-6.1
		c-5.3-8-14.3-12.6-24.6-12.6c-14.5,0-25.8,8.8-28.7,22.4c-1.2,5.7-1.4,9-1.6,27.4c-0.1,17.3-0.1,17.9,0.4,17.5
		C81-113.9,94-124.8,109.6-137.9L109.6-137.9z M202.6-55.6v-13.5l3.9-0.2c12.3-0.6,21.3-6.6,25.2-17.1c1.9-5.1,2-6.2,2.2-19.7
		l0.1-12.4h-20.4h-20.4V-133v-14.5h54.4h54.4v14.5v14.5h-20.4h-20.4v11.9c0,15.2-0.5,19.5-2.9,27.2c-4.5,13.9-14,25.1-26.7,31.4
		c-8.4,4.1-15.9,5.9-25,5.9h-3.7L202.6-55.6z M328.4-120.9v-78.9h14.5h14.5l0.1,65.1l0.1,65.1l2.7-0.1c6.3-0.2,11.9-1.6,17.4-4.3
		c4.5-2.2,8.1-4.9,11.7-8.7c8.7-9.2,14-23.2,14-36.9v-3.4H417h13.7v2.5c0,1.4-0.1,4.4-0.3,6.6c-2.2,28.5-16.2,51-39,62.6
		c-8.6,4.4-17.1,6.9-28.4,8.6c-2.9,0.4-6.6,0.5-19.1,0.6L328.4-42L328.4-120.9z M193.2-185.4v-14.5h54.4h54.4v14.5v14.5h-54.4h-54.4
		V-185.4z"/>
</g>
<path d="M368.6,188.6l-10.6,36.9l-10.6-36.9h-12.8l17.8,56.1h11.2l17.8-56.1H368.6L368.6,188.6z M288.1,200.7h14.3v44h12.1v-44h14.3
	v-12.1h-40.8V200.7z M38.1,221.5l-18.8-32.9H9v56.1h11.6v-33l18.8,33h10.2v-56.1H38.1V221.5z M250.7,221.5l-18.8-32.9h-10.3v56.1
	h11.6v-33l18.8,33h10.3v-56.1h-11.6L250.7,221.5L250.7,221.5z M60.8,244.7h12v-56.1h-12V244.7z M193.1,187.5H192
	c-9.9,0-15.6,6.8-17.5,12.6c-1.5,4.4-1.5,9.3-1.5,15.5v2.1c0,6.2,0,11.1,1.5,15.6c1.9,5.8,7.7,12.5,17.5,12.5h1.2
	c9.8,0,15.6-6.8,17.6-12.5c1.5-4.4,1.5-9.4,1.5-15.6v-2.1c0-6.2,0-11.1-1.5-15.5C208.7,194.3,203,187.5,193.1,187.5 M183.4,213.6
	c0-3,0.1-6.8,0.6-9.1c0.8-3.7,4.2-6.5,8-6.5h1.2c3.3,0,6.3,2.1,7.5,5.1c-0.8,0.7-15,12.6-17.3,14.5L183.4,213.6 M201.1,228.9
	c-0.8,3.7-4.2,6.5-8,6.5H192c-3.3,0-6.3-2.1-7.5-5.1c0.8-0.7,15-12.6,17.3-14.4v4C201.7,222.8,201.7,226.6,201.1,228.9L201.1,228.9z
	 M100.7,188.6H83.9v56.1h12V227h4.8c14.9,0,19.9-10.8,19.9-18.7v-1C120.6,199.4,115.6,188.6,100.7,188.6 M109,208
	c0,4.5-3,7.2-9.2,7.2h-3.9v-14.8h4.1c5.8,0,9.1,2.7,9.1,7.2L109,208L109,208z M145.1,188.6h-16.8v56.1h12V227h4.8
	c15,0,20-10.8,20-18.7v-1C165.1,199.4,160.1,188.6,145.1,188.6 M153.5,207.9c0,4.5-3,7.2-9.2,7.2h-4v-14.8h4.1
	c5.8,0,9.1,2.7,9.1,7.2L153.5,207.9L153.5,207.9z"/>
</svg>
