<?xml version="1.0" encoding="UTF-8" standalone="no"?>
<!-- Generator: Adobe Illustrator 22.0.1, SVG Export Plug-In . SVG Version: 6.00 Build 0)  -->

<svg
   xmlns:dc="http://purl.org/dc/elements/1.1/"
   xmlns:cc="http://creativecommons.org/ns#"
   xmlns:rdf="http://www.w3.org/1999/02/22-rdf-syntax-ns#"
   xmlns:svg="http://www.w3.org/2000/svg"
   xmlns="http://www.w3.org/2000/svg"
   xmlns:sodipodi="http://sodipodi.sourceforge.net/DTD/sodipodi-0.dtd"
   xmlns:inkscape="http://www.inkscape.org/namespaces/inkscape"
   version="1.1"
   id="レイヤー_1"
   x="0px"
   y="0px"
   width="167.612px"
   height="75.26px"
   viewBox="0 0 167.612 75.26"
   enable-background="new 0 0 167.612 75.26"
   xml:space="preserve"
   sodipodi:docname="Tokyo_Broadcasting_System_logo_2020.svg"
   inkscape:version="0.92.4 (5da689c313, 2019-01-14)"><metadata
   id="metadata3741"><rdf:RDF><cc:Work
       rdf:about=""><dc:format>image/svg+xml</dc:format><dc:type
         rdf:resource="http://purl.org/dc/dcmitype/StillImage" /></cc:Work></rdf:RDF></metadata><defs
   id="defs3739" /><sodipodi:namedview
   pagecolor="#ffffff"
   bordercolor="#666666"
   borderopacity="1"
   objecttolerance="10"
   gridtolerance="10"
   guidetolerance="10"
   inkscape:pageopacity="0"
   inkscape:pageshadow="2"
   inkscape:window-width="1920"
   inkscape:window-height="1017"
   id="namedview3737"
   showgrid="false"
   inkscape:zoom="10.530272"
   inkscape:cx="68.3743"
   inkscape:cy="37.630001"
   inkscape:window-x="-8"
   inkscape:window-y="-8"
   inkscape:window-maximized="1"
   inkscape:current-layer="レイヤー_1" />
<g
   id="g3734"
   style="fill:#0050ff;fill-opacity:1">
	<path
   fill="#0062B2"
   d="M133.012,52.566c0.91,1.464,1.657,2.972,2.682,4.259c3.054,3.838,8.873,4.95,13.092,2.606   c2.655-1.475,4.122-3.749,4.184-6.777c0.064-3.09-1.231-5.594-4.005-7.035c-1.948-1.012-4.042-1.771-6.125-2.489   c-4.25-1.466-8.416-3.08-12.165-5.626c-5.258-3.571-8.38-8.493-9.276-14.777c-1.359-9.537,4.776-18.874,14.052-21.555   c4.945-1.429,9.916-1.538,14.911-0.408c6.729,1.522,11.426,5.582,14.397,11.735c0.263,0.545,0.8,1.737,0.826,2.032l-12.465,5.372   c-1.05-1.4-1.907-2.853-3.057-4.016c-3.494-3.533-9.264-3.409-12.566,0.027c-2.79,2.903-1.769,7.871,0.159,10.022   c1.835,2.046,4.241,3.07,6.735,3.964c2.905,1.042,5.872,1.934,8.709,3.134c3.74,1.582,7.125,3.777,9.808,6.892   c5.277,6.127,6.211,14.677,2.316,21.904c-3.968,7.365-10.254,11.345-18.513,12.263c-4.868,0.541-9.605,0.006-14.155-1.905   c-5.592-2.349-9.438-6.452-11.947-11.884c-0.454-0.983-0.904-1.993-0.904-1.993L133.012,52.566z"
   id="path3728"
   style="fill:#0050ff;fill-opacity:1" />
	<path
   fill="#0062B2"
   d="M0,14.235C0,9.572,0,5.064,0,0.493c16.372,0,32.703,0,49.115,0c0,4.546,0,9.099,0,13.738L31.87,14.236   c0.024,17.376,0.064,54.821,0.064,54.821s-14.346,6.086-14.682,6.203c0-0.441-0.002-61.023-0.002-61.023S0.41,14.235,0,14.235z"
   id="path3730"
   style="fill:#0050ff;fill-opacity:1" />
	<path
   fill="#0062B2"
   d="M62.132,73.221V0.483c0,0,16.364-0.043,24.128-0.031c11.362,0.018,20.589,8.472,21.496,19.809   c0.443,5.543-1.136,10.55-4.592,14.926l-0.424,0.628l0.458,0.64c8.791,9.504,7.37,24.649-2.996,32.357   c-3.873,2.879-8.19,4.38-13.022,4.385L62.132,73.221z M75.794,51.463c0,2.607-0.011,8.658-0.011,8.658s7.887,0.018,11.472-0.022   c4.686-0.11,8.468-4.126,8.4-8.785c-0.068-4.682-3.923-8.509-8.637-8.541c-3.425-0.023-11.235-0.022-11.235-0.022   s0.008,6.134,0.008,8.711C75.792,51.463,75.793,51.463,75.794,51.463z M75.812,21.847c0,2.386-0.011,7.926-0.011,7.926   s7.335,0.016,10.669-0.02c4.358-0.101,7.875-3.777,7.812-8.042c-0.064-4.286-3.648-7.789-8.033-7.818   c-3.185-0.021-10.448-0.02-10.448-0.02s0.007,5.616,0.007,7.974C75.81,21.847,75.811,21.847,75.812,21.847z"
   id="path3732"
   style="fill:#0050ff;fill-opacity:1" />
</g>
</svg>