<?xml version="1.0" encoding="UTF-8" standalone="no"?>
<!-- Created with Inkscape (http://www.inkscape.org/) -->

<svg
   xmlns:dc="http://purl.org/dc/elements/1.1/"
   xmlns:cc="http://creativecommons.org/ns#"
   xmlns:rdf="http://www.w3.org/1999/02/22-rdf-syntax-ns#"
   xmlns:svg="http://www.w3.org/2000/svg"
   xmlns="http://www.w3.org/2000/svg"
   version="1.1"
   width="195.85715"
   height="25.29125"
   id="svg3288">
  <defs
     id="defs3290" />
  <metadata
     id="metadata3293">
    <rdf:RDF>
      <cc:Work
         rdf:about="">
        <dc:format>image/svg+xml</dc:format>
        <dc:type
           rdf:resource="http://purl.org/dc/dcmitype/StillImage" />
        <dc:title></dc:title>
      </cc:Work>
    </rdf:RDF>
  </metadata>
  <path
     d="m 25.12375,6.36375 c 0.81625,0 1.35125,-0.44 1.35125,-1.25375 l 0,-0.8475 c 0,-0.82 -0.6225,-1.3 -1.44125,-1.3 l -21.605,0 C 2.6125,2.9625 2,3.4425 2,4.2625 l 0,0.87625 c 0,0.84375 0.56125,1.225 1.37875,1.225 l 7.66,0 c 0.8175,0 1.48375,0.6675 1.48375,1.48 l 0,13.20625 c 0,0.81875 0.48375,1.43125 1.29875,1.43125 l 0.88,0 c 0.83375,0 1.23625,-0.59625 1.23625,-1.41125 l 0,-13.22625 c 0,-0.8125 0.6675,-1.48 1.48375,-1.48 l 7.7025,0"
     id="T"
     style="fill:#4d45a4;fill-opacity:1;fill-rule:nonzero;stroke:none" />
  <path
     d="m 27.09125,12.6475 c 0,5.87125 4.775,10.64375 10.6475,10.64375 5.87,0 10.65,-4.7725 10.65,-10.64375 C 48.38875,6.775 43.60875,2 37.73875,2 31.86625,2 27.09125,6.775 27.09125,12.6475 z m 3.39625,0 c 0,-3.9975 3.25375,-7.24875 7.25125,-7.24875 3.99625,0 7.24625,3.25125 7.24625,7.24875 0,3.99875 -3.25,7.2475 -7.24625,7.2475 -3.9975,0 -7.25125,-3.24875 -7.25125,-7.2475"
     id="O1"
     style="fill:#33bdf2;fill-opacity:1;fill-rule:nonzero;stroke:none" />
  <path
     d="m 54.2625,2.66125 -1.05,0 c -0.7525,0 -1.2625,0.5925 -1.2625,1.38125 l 0,17.14 c 0,0.76375 0.57375,1.30875 1.25375,1.30875 l 1.1075,0 c 0.7325,0 1.1875,-0.555 1.1875,-1.3575 l 0,-17.1275 c 0,-0.8025 -0.425,-1.345 -1.23625,-1.345"
     id="K-l"
     style="fill:#99d64b;fill-opacity:1;fill-rule:nonzero;stroke:none" />
  <path
     d="m 70.2275,19.94 c 0,0 -8.3175,-7.13 -8.325,-7.13875 C 61.57625,12.54875 61.70125,12.095 61.9387,11.875 L 69.69495,5.23625 C 70.3537,4.7125 70.3912,3.8975 69.9337,3.3575 69.9317,3.3575 69.40245,2.725 69.40245,2.725 68.95495,2.19375 68.31745,2.0725 67.5687,2.6613 l -10.4075,8.91875 c -0.56375,0.5325 -0.53625,1.1325 0.02,1.72125 l 10.85375,9.21875 c 0.64625,0.52 1.3375,0.4375 1.7625,-0.0613 l 0.60125,-0.705 c 0.43375,-0.53 0.4175,-1.2375 -0.17125,-1.81375"
     id="K-r"
     style="fill:#99d64b;fill-opacity:1;fill-rule:nonzero;stroke:none" />
  <path
     d="m 94.771254,5.06625 c 0.515,-0.51375 0.63375,-1.17 0.0925,-1.7575 l -0.6325,-0.63 C 93.642504,2.1 92.905004,2.13125 92.287504,2.73505 L 84.98125,10.0513 c -0.39125,0.39625 -1.045,0.39625 -1.43875,0 l -7.31,-7.325 c -0.59,-0.57 -1.3375,-0.62125 -1.875,-0.1075 l -0.65875,0.655 c -0.515,0.4925 -0.515,1.215 0.0537,1.78875 l 8.08875,8.095 c 0.55875,0.525 0.7175,1.08625 0.7175,1.73125 l 0,6.215 c 0,0.845 0.58875,1.385 1.2575,1.385 l 0.9175,0 c 0.7375,0 1.23375,-0.49375 1.23375,-1.375 l 0,-6.225 c 0,-0.665 0.1975,-1.21125 0.715,-1.73125 L 94.771204,5.0663"
     id="Y"
     style="fill:#f9ae14;fill-opacity:1;fill-rule:nonzero;stroke:none" />
  <path
     d="m 96.188754,12.6475 c 0,5.87125 4.776246,10.64375 10.647496,10.64375 5.87125,0 10.64625,-4.7725 10.64625,-10.64375 C 117.4825,6.775 112.7075,2 106.83625,2 100.965,2 96.188754,6.775 96.188754,12.6475 z m 3.39625,0 c 0,-3.9975 3.254996,-7.24875 7.251246,-7.24875 3.99625,0 7.24875,3.25125 7.24875,7.24875 0,3.99875 -3.2525,7.2475 -7.24875,7.2475 -3.99625,0 -7.251246,-3.24875 -7.251246,-7.2475"
     id="O2"
     style="fill:#f36218;fill-opacity:1;fill-rule:nonzero;stroke:none" />
  <path
     d="M 166.455,18.09625 156.775,4.64 c -0.6175,-0.87 -1.70875,-0.87 -2.29,-0.0738 l -6.11375,8.125 c -0.22625,0.3 -0.52625,0.4825 -0.88625,0.4825 -0.34625,0 -0.66125,-0.1825 -0.88625,-0.4825 l -6.11,-8.125 c -0.57875,-0.79625 -1.67,-0.79625 -2.29,0.0738 l -9.6825,13.45625 c -0.47375,0.66125 -0.4125,1.42875 0.25125,1.90125 l 0.69375,0.50625 c 0.66625,0.47625 1.3375,0.26375 1.81375,-0.40125 L 138.545,10 c 0.47375,-0.66125 1.265,-0.66875 1.7575,-0.0212 l 6.065,8.06125 c 0.295,0.37375 0.71,0.57625 1.1175,0.57625 0.40625,0 0.82625,-0.2025 1.11875,-0.57625 l 6.065,-8.06125 c 0.4925,-0.6475 1.28375,-0.64 1.76,0.0212 l 7.2725,10.1025 c 0.47125,0.665 1.1425,0.8775 1.80625,0.40125 l 0.69625,-0.50625 c 0.66375,-0.4725 0.725,-1.24 0.25125,-1.90125"
     id="M"
     style="fill:#ed1639;fill-opacity:1;fill-rule:nonzero;stroke:none" />
  <path
     d="m 170.2225,21.71 c -0.5025,-0.60875 -0.3175,-1.37 0.3,-1.9 l 7.62,-6.49875 c 0.615,-0.53 0.615,-1.39875 0,-1.92875 l -7.1,-6.0725 c -0.6275,-0.53375 -0.835,-1.2775 -0.25625,-1.94375 l 0.5475,-0.64875 c 0.53125,-0.6175 1.24,-0.56625 1.865,-0.0387 l 7.56125,6.47 c 0.6175,0.53 1.6325,0.53 2.2525,0 l 7.57625,-6.50375 c 0.62,-0.52875 1.31375,-0.52875 1.84125,0.09 l 0.56375,0.6875 c 0.53,0.62 0.36125,1.33875 -0.25875,1.87 l -7.1025,6.09 c -0.62,0.53 -0.62,1.39875 0,1.92875 l 7.66375,6.51875 c 0.6225,0.53 0.76375,1.30375 0.23625,1.92625 l -0.55625,0.65875 c -0.53,0.62 -1.24,0.55375 -1.855,0.025 l -8.10875,-6.895 c -0.62,-0.53 -1.635,-0.53 -2.2575,0 l -8.025,6.85 c -0.6175,0.5325 -1.33125,0.675 -1.8625,0.0513 l -0.645,-0.73625"
     id="X"
     style="fill:#f033a3;fill-opacity:1;fill-rule:nonzero;stroke:none" />
</svg>
