<?xml version="1.0" encoding="utf-8"?>
<svg version="1.1"
	 id="Layer_1" inkscape:version="0.92.2 (5c3e80d, 2017-08-06)" sodipodi:docname="TV Asahi Logo.svg" xmlns:cc="http://creativecommons.org/ns#" xmlns:dc="http://purl.org/dc/elements/1.1/" xmlns:inkscape="http://www.inkscape.org/namespaces/inkscape" xmlns:rdf="http://www.w3.org/1999/02/22-rdf-syntax-ns#" xmlns:sodipodi="http://sodipodi.sourceforge.net/DTD/sodipodi-0.dtd" xmlns:svg="http://www.w3.org/2000/svg"
	 xmlns="http://www.w3.org/2000/svg" xmlns:xlink="http://www.w3.org/1999/xlink" x="0px" y="0px" viewBox="0 0 250 134.7"
	 style="enable-background:new 0 0 250 134.7;" xml:space="preserve">
<style type="text/css">
	.st0{fill:#F0027E;}
</style>
<sodipodi:namedview  bordercolor="#666666" borderopacity="1" fit-margin-bottom="3" fit-margin-left="3" fit-margin-right="3" fit-margin-top="3" gridtolerance="10" guidetolerance="10" id="namedview25" inkscape:current-layer="Layer_1" inkscape:cx="49.220662" inkscape:cy="36.80424" inkscape:pageopacity="0" inkscape:pageshadow="2" inkscape:window-height="706" inkscape:window-maximized="1" inkscape:window-width="1366" inkscape:window-x="-8" inkscape:window-y="-8" inkscape:zoom="1" objecttolerance="10" pagecolor="#ffffff" showgrid="false">
	</sodipodi:namedview>
<g id="g4609" transform="translate(0,92.531706)">
	<path id="path18" inkscape:connector-curvature="0" class="st0" d="M188.1-89.5l25.5,17.7l-4.2,27.2L67.6-22.9l-25.3-18l4-27
		C46.4-67.9,140.8-82.2,188.1-89.5z"/>
	<path id="path2" inkscape:connector-curvature="0" class="st0" d="M181.7,38.1h9.5c-1.6-6.3-1-19-1-19s1-9.3-2.2-12.8
		c-3.4-3-8.5-3.4-13-3.4c-4.3,0-9.1,0.6-12.2,4.1c-1.8,1.8-2.2,4.5-2.4,6.9h9.9c0.6-1.6,1-3.4,2.6-4.1c2-0.6,4.3-0.6,6.1,0.4
		c1.8,1.2,1.4,5.5,1.4,5.5c-5.9,0.8-12,1.4-17,4.5c-4.7,2.8-5.7,9.5-3,14c2.2,3.6,6.7,5.1,10.7,4.9c3.6-0.2,7.5-1.4,9.9-4.3
		C181.3,35.9,181.5,36.9,181.7,38.1L181.7,38.1z M179.7,27.6c-1.4,3.4-6.3,4.9-9.5,2.8c-2-1.4-1.6-4.9,0.6-5.9c3-1.6,9.5-3,9.5-3
		S180.5,25.8,179.7,27.6z"/>
	<g id="g10" transform="matrix(2.0265782,0,0,2.0265782,-48.880403,-77.605018)">
		<g id="g8">
			<rect id="rect4" x="140.9" y="40.2" class="st0" width="5.1" height="16.9"/>
			<rect id="rect6" x="140.9" y="34.4" class="st0" width="5.1" height="3.9"/>
		</g>
	</g>
	<path id="path12" inkscape:connector-curvature="0" class="st0" d="M208.5,6.5V-7.9h-10.3v45.8h10.3V16.4c0.8-8.1,9.9-6.1,10.1,0
		v21.5h10.1V12.6C228.2,0.8,215,0.8,208.5,6.5z"/>
	<path id="path14" inkscape:connector-curvature="0" class="st0" d="M20.8,30.8c-1.4,0-2.6-1.4-2.6-2.8V10.8h6.1V4.5h-6.1v-9.9H7.9
		v9.9H3v6.3h4.9v20.1c0,4.5,3.6,8.1,8.1,8.3c3.2,0,6.1,0,8.5-0.4v-8.1C23.3,30.8,22,30.8,20.8,30.8L20.8,30.8z"/>
	<polygon id="polygon16" class="st0" points="53.5,3.9 47.6,27.4 41.7,3.9 30.6,3.7 42.3,37.9 52.7,37.9 64.6,3.9 	"/>
	<path id="path20" inkscape:connector-curvature="0" class="st0" d="M107.6,37.9h9.7c-1.6-6.3-1-19-1-19s1-9.3-2.2-12.8
		c-3.4-3-8.5-3.4-13-3.4c-4.3,0-9.1,0.6-12.2,4.1c-1.8,1.8-2.2,4.5-2.4,6.9h9.9c0.6-1.6,1-3.4,2.6-4.1c2-0.6,4.3-0.6,6.1,0.4
		c1.8,1.2,1.4,5.5,1.4,5.5c-5.9,0.8-12,1.4-17,4.5c-4.7,2.8-5.7,9.5-3,14c2.2,3.6,6.7,5.1,10.7,4.9c3.6-0.2,7.5-1.4,9.9-4.3
		C107.2,35.7,107.4,36.9,107.6,37.9z M105.7,27.6c-1.4,3.4-6.3,4.9-9.5,2.8c-2-1.4-1.6-4.9,0.6-5.9c3-1.6,9.5-3,9.5-3
		S106.6,25.5,105.7,27.6z"/>
	<path id="path22" inkscape:connector-curvature="0" class="st0" d="M133.5,3.3c7.1-1.8,14.4,0.6,20.5,4.5l-6.3,6.3
		c-2.8-2.4-6.5-3.6-10.1-3.6c-1.4,0-3.4,0.4-3.9,2c-0.4,1.4,1,2.6,2.2,3c5.1,1.8,10.9,1.4,15.4,4.9c2.8,2.2,3,6.1,2.4,9.3
		c-0.6,3.4-3.2,6.1-6.3,7.5c-4.3,2-8.9,2-13.4,1.6c-4.9-0.6-9.3-3.2-12.8-6.5l6.5-5.5c3,2.8,7.1,5.1,11.3,4.9c2,0,4.9-0.8,5.1-3.2
		c0.2-1.6-1.6-2.2-2.8-2.6c-5.1-1.4-10.7-1.4-15-4.7c-2.8-2.2-3-6.3-2.2-9.5C125.2,7.1,129.3,4.3,133.5,3.3L133.5,3.3z"/>
</g>
</svg>
