<svg enable-background="new 0 0 133.219 28.665" version="1.1" viewBox="0 0 365 130" xmlns="http://www.w3.org/2000/svg">
 <g transform="matrix(2.631694 0 0 2.631694 -12.23771 -52.37425)">
  <g transform="matrix(.5085471 0 0 -.5085471 94.8629 47.25199)">
   <path d="m0 0s.69-4.045.92-7.154c.301-4.068-1.704-9.034-7.142-11.064-14.903-5.561-39.359-13.546-59.184-19.446v81.138l17.127-.001v-58.464c23.109 6.264 48.279 14.991 48.279 14.991" fill="#000f64"/>
  </g>
  <g transform="matrix(.5085471 0 0 -.5085471 48.08679 28.15976)">
   <path d="m0 0v5.931h-63.571v-14.881h54.621c4.943 0 8.95 4.007 8.95 8.95" fill="#000f64"/>
  </g>
  <g transform="matrix(.5085471 0 0 -.5085471 36.13812 47.26567)">
   <path d="m0 0h26.34c4.943 0 8.95 4.007 8.95 8.95v5.93h-31.581z" fill="#000f64"/>
  </g>
  <g transform="matrix(.5085471 0 0 -.5085471 7.500003 47.26562)">
   <path d="m0 0h33.056l-9.384-37.638c12.423 0 20.399 3.836 21.927 9.984l10.61 42.534h-41.04c-9.539 0-12.774-5.275-15.169-14.88" fill="#e7465a"/>
  </g>
  <g transform="matrix(.5085471 0 0 -.5085471 131.973 36.99744)">
   <path d="m0 0v-7.588l-15.696.004v7.584zm0-23.968h-15.696v7.562h15.696zm-44.843 7.561h15.697v-7.562h-15.697zm0 16.407h15.697v-7.581l-15.697.003zm15.699 23.309h-32.455v-10.304h32.523v-4.199h-29.015v-41.58h18.105c-.785-.523-10.713-7.054-21.613-10.436v-12.415s15.449 3.126 32.455 15.693v-17.897h13.45v17.893c17.004-12.564 32.45-15.689 32.45-15.689v12.415c-10.801 3.352-20.648 9.795-21.589 10.42l12.818-.01c2.907 0 5.263 2.356 5.263 5.262v36.344h-28.944v4.199h28.944c1.938 0 3.508 1.571 3.508 3.508v6.796h-32.45v4.62h-13.45z" fill="#000f64"/>
  </g>
 </g>
</svg>
